<svg width="20" height="24" viewBox="0 0 20 24" fill="none" xmlns="http://www.w3.org/2000/svg">
<path d="M7.10294 0.264706C7.5 -0.0882353 8.11765 -0.0882353 8.47059 0.264706C9.04412 0.794118 9.52941 1.36765 9.97059 1.94118C10.5882 2.64706 11.2941 3.61765 12 4.76471C12.2206 4.45588 12.4412 4.19118 12.6176 3.97059C12.6618 3.92647 12.7059 3.88235 12.75 3.79412C13.1029 3.35294 13.5441 2.82353 14.1176 2.82353C14.6912 2.82353 15.1324 3.35294 15.4853 3.79412C15.5294 3.88235 15.5735 3.92647 15.6618 4.01471C16.1029 4.54412 16.7206 5.33824 17.2941 6.30882C18.5294 8.25 19.7647 11.0294 19.7647 14.1176C19.7647 19.5882 15.3529 24 9.88235 24C4.41176 24 0 19.5882 0 14.1176C0 10.1029 1.80882 6.61765 3.57353 4.19118C4.41176 2.95588 5.29412 1.98529 5.95588 1.32353C6.30882 0.926471 6.70588 0.573529 7.10294 0.264706ZM9.97059 19.7647C11.0735 19.7647 12.0441 19.4559 13.0147 18.8382C14.8676 17.5588 15.3529 14.9559 14.25 12.9265C14.0294 12.5294 13.5441 12.4853 13.2353 12.8382L12.1324 14.1176C11.8235 14.4706 11.2941 14.4265 11.0294 14.0735C10.2794 13.1029 8.86765 11.3382 8.16176 10.4118C7.94118 10.1471 7.5 10.0588 7.19118 10.3676C6.39706 11.1176 4.94118 12.8382 4.94118 14.9559C4.94118 17.9559 7.19118 19.7647 9.97059 19.7647Z" fill="white"/>
</svg>
