<svg width="57" height="75" viewBox="0 0 57 75" fill="none" xmlns="http://www.w3.org/2000/svg">
<path d="M46.4482 6.59611L35.3169 32.8132H51.5744C53.7226 32.9108 55.1872 33.936 55.9683 35.8889C56.6518 37.8418 56.2124 39.5505 54.6502 41.0151L17.1554 73.8231C15.3002 75.2877 13.3473 75.3853 11.2968 74.116C9.44162 72.5537 8.9534 70.6497 9.83219 68.4039L21.1099 42.1868H4.70595C2.65546 42.0892 1.19082 41.064 0.312032 39.1111C-0.371467 37.1583 0.0679253 35.4495 1.63021 33.9849L39.125 1.17694C40.9802 -0.287697 42.933 -0.38534 44.9835 0.884015C46.8387 2.4463 47.327 4.35033 46.4482 6.59611Z" fill="white"/>
</svg>
