<svg width="46" height="43" viewBox="0 0 46 43" fill="none" xmlns="http://www.w3.org/2000/svg">
<path d="M38.2549 2.10352C39.4722 0.554546 41.6658 0.169944 43.2812 1.2041L43.4355 1.30859L43.4473 1.31641L43.459 1.3252C45.0583 2.58176 45.4164 4.87931 44.2539 6.50684L44.251 6.51074L19.6387 40.3535L19.624 40.374L19.6074 40.3936C18.9517 41.1584 18.0464 41.7401 16.9902 41.8574L16.9834 41.8584C15.8089 41.9757 14.7799 41.5016 14.0146 40.8457L13.9971 40.8301L1.67383 28.5068L1.66406 28.498L1.65625 28.4883C0.281522 26.999 0.281522 24.7071 1.65625 23.2178L1.67285 23.1992L1.69141 23.1826C3.13421 21.8508 5.33049 21.809 6.82031 23.0576L6.96191 23.1826L6.97266 23.1924L6.98242 23.2021L16.1748 32.4863L38.2402 2.12305L38.248 2.11328L38.2549 2.10352Z" fill="white" stroke="white" stroke-width="1.25"/>
</svg>
