<svg width="41" height="38" viewBox="0 0 41 38" fill="none" xmlns="http://www.w3.org/2000/svg">
<path d="M34.3535 1.80664C35.4644 0.392737 37.4941 0.076671 38.9307 1.10254L38.9404 1.10938L38.9492 1.11621C40.3632 2.22722 40.6795 4.25771 39.6533 5.69434L39.6504 5.69727L17.499 36.1562L17.4873 36.1719L17.4746 36.1875C16.8924 36.8668 16.0907 37.3799 15.1592 37.4834L15.1543 37.4844C14.1185 37.588 13.2088 37.1703 12.5293 36.5879L12.5146 36.5752L1.41113 25.4717C0.195988 24.1553 0.19601 22.1289 1.41113 20.8125L1.4248 20.7979L1.43945 20.7842C2.71467 19.6071 4.65577 19.5704 5.97266 20.6738L6.09863 20.7842L6.11426 20.7998L14.4395 29.207L34.3418 1.82129L34.3477 1.81348L34.3535 1.80664Z" fill="white" stroke="white"/>
</svg>
